<svg width="35" height="35" viewBox="0 0 35 35" fill="none" xmlns="http://www.w3.org/2000/svg">
<path d="M5.73192 5.51942C5.66127 4.81299 6.21601 4.20001 6.92596 4.20001H15.474C16.1839 4.20001 16.7387 4.81299 16.668 5.51942L16.1119 11.0806C16.104 11.16 16.104 11.24 16.1119 11.3194L16.668 16.8806C16.7387 17.587 16.1839 18.2 15.474 18.2H6.92596C6.21601 18.2 5.66127 17.587 5.73192 16.8806L6.28804 11.3194C6.29598 11.24 6.29598 11.16 6.28804 11.0806L5.73192 5.51942Z" stroke="#101621" stroke-width="2"/>
<path d="M19.7319 18.1194C19.6613 17.413 20.216 16.8 20.926 16.8H29.474C30.1839 16.8 30.7387 17.413 30.668 18.1194L30.1119 23.6806C30.104 23.76 30.104 23.84 30.1119 23.9194L30.668 29.4806C30.7387 30.187 30.1839 30.8 29.474 30.8H20.926C20.216 30.8 19.6613 30.187 19.7319 29.4806L20.288 23.9194C20.296 23.84 20.296 23.76 20.288 23.6806L19.7319 18.1194Z" stroke="#101621" stroke-width="2"/>
<path d="M30.6044 5.56972C30.7077 4.8468 30.1467 4.20001 29.4164 4.20001H25.2H20.9837C20.2534 4.20001 19.6924 4.8468 19.7957 5.56972L20.2758 8.93031C20.2919 9.04287 20.2919 9.15715 20.2758 9.26972L19.7957 12.6303C19.6924 13.3532 20.2534 14 20.9837 14H25.2H29.4164C30.1467 14 30.7077 13.3532 30.6044 12.6303L30.1243 9.26972C30.1082 9.15715 30.1082 9.04287 30.1243 8.93031L30.6044 5.56972Z" stroke="#101621" stroke-width="2"/>
<path d="M16.6044 22.3697C16.7077 21.6468 16.1467 21 15.4164 21H11.2H6.98366C6.2534 21 5.69245 21.6468 5.79572 22.3697L6.2758 25.7303C6.29189 25.8429 6.29189 25.9571 6.2758 26.0697L5.79572 29.4303C5.69245 30.1532 6.2534 30.8 6.98366 30.8H11.2H15.4164C16.1467 30.8 16.7077 30.1532 16.6044 29.4303L16.1243 26.0697C16.1082 25.9571 16.1082 25.8429 16.1243 25.7303L16.6044 22.3697Z" stroke="#101621" stroke-width="2"/>
</svg>
